<svg xmlns="http://www.w3.org/2000/svg" width="74.866" height="58.538" viewBox="0 0 74.866 58.538">
  <g id="mortarboard-graduate-svgrepo-com" transform="translate(-0.001 -42.809)">
    <path id="Path_11" data-name="Path 11" d="M105.75,176.75l-20.379-8.075V191.52a24.307,24.307,0,0,1,4.857-.481c6.386,0,12.144,2.429,15.546,6.4,3.4-3.97,9.148-6.4,15.546-6.4a24.129,24.129,0,0,1,4.857.481V169.242l-18.924,7.52h-1.5Z" transform="translate(-69.09 -101.862)" fill="#fff"/>
    <path id="Path_12" data-name="Path 12" d="M73.547,56.987,38.189,42.957a2.049,2.049,0,0,0-1.529,0L1.278,56.987a2.1,2.1,0,0,0,0,3.871l10.849,4.3V92.382a2.051,2.051,0,0,0,2.762,1.96,19.108,19.108,0,0,1,6.263-1.011c6.1,0,11.613,2.774,13.709,6.879a2.078,2.078,0,0,0,3.711-.012c2.083-4.105,7.57-6.867,13.672-6.867a19.055,19.055,0,0,1,6.263,1.011,2.107,2.107,0,0,0,2.762-1.96V65.728L70.7,61.98V82.889a2.083,2.083,0,1,0,4.167,0V58.935A2.206,2.206,0,0,0,73.547,56.987ZM57.113,89.657a24.308,24.308,0,0,0-4.857-.481c-6.386,0-12.144,2.429-15.546,6.4-3.415-3.97-9.185-6.4-15.546-6.4a24.13,24.13,0,0,0-4.857.481V66.813l20.379,8.075h1.529l18.924-7.52V89.645h-.025ZM37.425,70.721,7.688,58.935,37.425,47.149,67.136,58.935Z" transform="translate(0)" fill="#008554"/>
    <g id="Group_5" data-name="Group 5" transform="translate(20.423 70.499)">
      <path id="Path_13" data-name="Path 13" d="M107.091,190.456h5.634a2.083,2.083,0,1,1,0,4.167h-5.634V198.2H109.8a2.083,2.083,0,0,1,0,4.167h-2.712v.16c.234,0,9.974-.086,16.249,4.907a25.939,25.939,0,0,1,15.546-4.919c.234,0,.469,0,.7.012V188h-3.711l-11.022,4.376h-1.529L112.294,188h-5.2v2.454Z" transform="translate(-107.091 -188.002)" fill="#ffc10d"/>
      <path id="Path_14" data-name="Path 14" d="M194.043,188.279l.518-.21h-1.036Z" transform="translate(-177.042 -188.056)" fill="#ffc10d"/>
    </g>
    <path id="Path_15" data-name="Path 15" d="M40.313,77.246,70.049,89.032,99.761,77.246,70.049,65.435Z" transform="translate(-32.625 -18.311)" fill="#c8f2e6"/>
  </g>
</svg>
